<svg aria-hidden="true" style="position: absolute; width: 0; height: 0; overflow: hidden;" version="1.1" xmlns="http://www.w3.org/2000/svg" xmlns:xlink="http://www.w3.org/1999/xlink">
<defs>
<symbol id="icon-menu-button" viewBox="0 0 59 32">
<path d="M58.667 31.971h-58.667v-5.205h58.667v5.205zM58.667 18.958h-58.667v-5.205h58.667v5.205zM58.667 5.946h-58.667v-5.205h58.667v5.205z"></path>
</symbol>
<symbol id="icon-02" viewBox="0 0 38 32">
<path fill="#df3d3a" style="fill: var(--color1, #df3d3a)" opacity="0.2" d="M16.344 18.196c0 4.269-0.623 7.464-1.869 9.585-1.246 2.108-3.202 3.162-5.866 3.162-2.585 0-4.514-1.014-5.787-3.043s-1.936-5.078-1.989-9.148v-4.972c0-4.229 0.623-7.384 1.869-9.466 1.259-2.081 3.215-3.122 5.866-3.122 2.612 0 4.541 0.988 5.787 2.963 1.259 1.975 1.922 4.965 1.989 8.969v5.071zM12.824 13.165c0-3.063-0.338-5.316-1.014-6.761-0.676-1.458-1.757-2.188-3.241-2.188-1.445 0-2.506 0.716-3.182 2.148-0.676 1.419-1.027 3.566-1.054 6.443v5.966c0 3.049 0.351 5.343 1.054 6.881 0.703 1.525 1.777 2.287 3.222 2.287 1.432 0 2.486-0.723 3.162-2.168s1.027-3.652 1.054-6.622v-5.986zM37.185 30.545h-16.188v-2.645l8.253-10.937c1.246-1.684 2.108-3.063 2.585-4.136 0.491-1.087 0.736-2.234 0.736-3.44 0-1.538-0.358-2.784-1.074-3.739s-1.657-1.432-2.824-1.432c-1.472 0-2.612 0.51-3.421 1.531-0.795 1.008-1.193 2.466-1.193 4.375h-3.52c0-2.665 0.729-4.819 2.188-6.463s3.44-2.466 5.946-2.466c2.307 0 4.123 0.709 5.449 2.128 1.326 1.405 1.989 3.281 1.989 5.628 0 2.864-1.492 6.251-4.474 10.162l-6.443 8.432h11.992v3.003z"></path>
</symbol>
<symbol id="icon-03" viewBox="0 0 36 32">
<path fill="#df3d3a" style="fill: var(--color1, #df3d3a)" opacity="0.2" d="M16.344 18.196c0 4.269-0.623 7.464-1.869 9.585-1.246 2.108-3.202 3.162-5.866 3.162-2.585 0-4.514-1.014-5.787-3.043s-1.936-5.078-1.989-9.148v-4.972c0-4.229 0.623-7.384 1.869-9.466 1.259-2.081 3.215-3.122 5.866-3.122 2.612 0 4.541 0.988 5.787 2.963 1.259 1.975 1.922 4.965 1.989 8.969v5.071zM12.824 13.165c0-3.063-0.338-5.316-1.014-6.761-0.676-1.458-1.757-2.188-3.241-2.188-1.445 0-2.506 0.716-3.182 2.148-0.676 1.419-1.027 3.566-1.054 6.443v5.966c0 3.049 0.351 5.343 1.054 6.881 0.703 1.525 1.777 2.287 3.222 2.287 1.432 0 2.486-0.723 3.162-2.168s1.027-3.652 1.054-6.622v-5.986zM25.491 14.278h2.247c1.445 0 2.559-0.444 3.341-1.332s1.173-2.101 1.173-3.639c0-3.394-1.312-5.091-3.937-5.091-1.259 0-2.247 0.457-2.963 1.372s-1.074 2.115-1.074 3.599h-3.5c0-2.32 0.703-4.229 2.108-5.727 1.418-1.511 3.228-2.267 5.429-2.267 2.28 0 4.090 0.716 5.429 2.148 1.339 1.419 2.009 3.434 2.009 6.045 0 1.339-0.351 2.592-1.054 3.759-0.689 1.153-1.591 2.002-2.705 2.545 2.731 1.008 4.097 3.268 4.097 6.781 0 2.585-0.722 4.647-2.168 6.185-1.432 1.524-3.308 2.287-5.628 2.287-2.294 0-4.15-0.722-5.568-2.168-1.405-1.458-2.108-3.414-2.108-5.866h3.52c0 1.538 0.371 2.764 1.114 3.679 0.742 0.902 1.757 1.352 3.043 1.352 1.313 0 2.353-0.444 3.122-1.332 0.782-0.888 1.173-2.241 1.173-4.057 0-3.513-1.664-5.27-4.991-5.27h-2.108v-3.003z"></path>
</symbol>
<symbol id="icon-04" viewBox="0 0 38 32">
<path fill="#df3d3a" style="fill: var(--color1, #df3d3a)" opacity="0.2" d="M16.344 18.196c0 4.269-0.623 7.464-1.869 9.585-1.246 2.108-3.202 3.162-5.866 3.162-2.585 0-4.514-1.014-5.787-3.043s-1.936-5.078-1.989-9.148v-4.972c0-4.229 0.623-7.384 1.869-9.466 1.259-2.081 3.215-3.122 5.866-3.122 2.612 0 4.541 0.988 5.787 2.963 1.259 1.975 1.922 4.965 1.989 8.969v5.071zM12.824 13.165c0-3.063-0.338-5.316-1.014-6.761-0.676-1.458-1.757-2.188-3.241-2.188-1.445 0-2.506 0.716-3.182 2.148-0.676 1.419-1.027 3.566-1.054 6.443v5.966c0 3.049 0.351 5.343 1.054 6.881 0.703 1.525 1.777 2.287 3.222 2.287 1.432 0 2.486-0.723 3.162-2.168s1.027-3.652 1.054-6.622v-5.986zM34.321 20.821h3.222v3.003h-3.222v6.722h-3.52v-6.722h-10.938v-2.168l10.759-20.065h3.699v19.23zM23.761 20.821h7.040v-13.761l-7.040 13.761z"></path>
</symbol>
<symbol id="icon-up-arrow" viewBox="0 0 31 32">
<path fill="none" stroke="#df3d3a" style="stroke: var(--color1, #df3d3a)" stroke-linejoin="miter" stroke-linecap="butt" stroke-miterlimit="4" stroke-width="2.7826" d="M1.391 29.783l27.826-27.826M29.217 1.957h-27.826M29.217 1.957v27.826"></path>
</symbol>
<symbol id="icon-dash" viewBox="0 0 75 32">
<path d="M67.083 27.479h-60.229v-22.021h60.229v22.021z"></path>
</symbol>
<symbol id="icon-dashes" viewBox="0 0 75 32">
<path d="M67.083 27.479h-60.229v-22.021h60.229v22.021z"></path>
</symbol>
<symbol id="icon-01" viewBox="0 0 32 32">
<path d="M16.344 18.196c0 4.269-0.623 7.464-1.869 9.585-1.246 2.108-3.202 3.162-5.866 3.162-2.585 0-4.514-1.014-5.787-3.043s-1.936-5.078-1.989-9.148v-4.972c0-4.229 0.623-7.384 1.869-9.466 1.259-2.081 3.215-3.122 5.866-3.122 2.612 0 4.541 0.988 5.787 2.963 1.259 1.975 1.922 4.965 1.989 8.969v5.071zM12.824 13.165c0-3.063-0.338-5.316-1.014-6.761-0.676-1.458-1.757-2.188-3.241-2.188-1.445 0-2.506 0.716-3.182 2.148-0.676 1.419-1.027 3.566-1.054 6.443v5.966c0 3.049 0.351 5.343 1.054 6.881 0.703 1.525 1.777 2.287 3.222 2.287 1.432 0 2.486-0.723 3.162-2.168s1.027-3.652 1.054-6.622v-5.986zM31.477 30.545h-3.54v-24.52l-6.085 2.724v-3.341l9.068-3.957h0.557v29.094z"></path>
</symbol>
<symbol id="icon-quota" viewBox="0 0 44 32">
<path d="M0 15.411v-15.411h17.875v11.603c0 12.087-5.958 18.886-17.875 20.397v-6.346c3.010-0.786 5.068-1.934 6.173-3.445 1.167-1.511 1.874-3.777 2.119-6.799h-8.293z"></path>
<path d="M25.645 15.411v-15.411h17.875v11.603c0 12.087-5.958 18.886-17.875 20.397v-6.346c3.010-0.786 5.068-1.934 6.173-3.445 1.167-1.511 1.874-3.777 2.119-6.799h-8.293z"></path>
</symbol>
<symbol id="icon-dot" viewBox="0 0 32 32">
<path d="M32 16c0 8.837-7.163 16-16 16s-16-7.163-16-16c0-8.837 7.163-16 16-16s16 7.163 16 16z"></path>
</symbol>
<symbol id="icon-question" viewBox="0 0 32 32">
<path fill="#fff" style="fill: var(--color1, #fff)" opacity="0.1" d="M32 16c0 8.837-7.163 16-16 16s-16-7.163-16-16c0-8.837 7.163-16 16-16s16 7.163 16 16z"></path>
<path fill="#e7e7e7" style="fill: var(--color2, #e7e7e7)" d="M15.066 18.996c0-0.781 0.081-1.416 0.244-1.904s0.56-1.11 1.191-1.865l0.683-0.879c0.456-0.638 0.684-1.302 0.684-1.992 0-0.684-0.143-1.217-0.43-1.602-0.28-0.391-0.684-0.586-1.211-0.586-0.495 0-0.908 0.176-1.24 0.527-0.325 0.352-0.488 0.824-0.488 1.416h-1.719c0.013-1.074 0.339-1.93 0.977-2.568s1.462-0.957 2.471-0.957c1.048 0 1.872 0.329 2.471 0.986s0.898 1.566 0.898 2.725c0 1.107-0.453 2.217-1.358 3.33l-0.898 1.084c-0.371 0.527-0.557 1.289-0.557 2.285h-1.719zM16.004 21.057c0.326 0 0.57 0.101 0.732 0.303 0.169 0.195 0.254 0.439 0.254 0.732s-0.085 0.537-0.254 0.732c-0.163 0.189-0.407 0.283-0.732 0.283-0.332 0-0.579-0.094-0.742-0.283-0.156-0.195-0.234-0.439-0.234-0.732s0.078-0.537 0.234-0.732c0.163-0.202 0.41-0.303 0.742-0.303z"></path>
</symbol>
<symbol id="icon-logo" viewBox="0 0 260 32">
<path fill="#e7e7e7" style="fill: var(--color7, #e7e7e7)" d="M210.618 5.047h44.948l4.436-5.034h-64.367l-17.86 30.445h41.713l2.996-5.034h-23.852l4.554-7.671h23.852l2.878-5.034h-23.734l4.436-7.671zM176.217 12.718h-17.74l2.877-4.914c1.199-2.038 2.277-2.757 4.075-2.757s2.397 1.438 1.439 3.237h18.099l1.798-3.237c1.318-2.397 1.318-5.034-1.918-5.034h-31.884c-2.877 0-5.154 0.36-6.832 3.117l-5.634 9.589c-1.558 2.757-1.438 5.034 2.397 5.034h18.339l-2.997 5.274c-0.839 1.438-1.918 2.397-4.435 2.397-2.158 0-2.038-1.439-1.079-2.877h-17.98l-2.158 3.596c-1.318 2.277-0.24 4.315 2.877 4.315h31.644c2.877 0 5.393-1.318 6.832-3.716l5.394-8.989c1.199-2.277 0.6-5.034-3.116-5.034z"></path>
<path fill="#e7e7e7" style="fill: var(--color7, #e7e7e7)" d="M253.222 5.934c-1.462 0-2.648 1.15-2.648 2.555 0 1.434 1.186 2.584 2.648 2.584 1.456 0 2.636-1.15 2.636-2.584 0-1.405-1.18-2.555-2.636-2.555zM253.222 10.57c-1.194 0-2.146-0.91-2.146-2.082 0-1.135 0.952-2.053 2.146-2.053 1.18 0 2.134 0.917 2.134 2.053 0 1.172-0.954 2.082-2.134 2.082zM135.343 0.013h-27.089c-3.716 0-8.51 0-11.387 5.034l-11.986 20.377c-1.678 2.757-0.24 5.034 2.877 5.034h31.524c3.237 0 5.274-0.959 7.791-5.034l11.986-20.377c1.558-2.637-0.839-5.034-3.716-5.034zM120.12 7.804l-8.99 15.223c-1.199 2.158-2.277 2.397-5.034 2.397s-3.476-0.959-2.637-2.397l9.109-15.223c1.318-2.277 2.877-2.757 5.154-2.757s3.596 0.719 2.398 2.757zM87.877 0.013h-34.761l-14.983 25.411h-33.082l-5.052 5.034h71.815c4.435 0 5.873-2.158 6.832-3.835l3.596-6.233c0.959-1.678 0.959-3.596-0.959-4.674 1.921 0 4.555-1.318 6.113-4.075l3.596-6.113c1.798-2.997-0.36-5.514-3.117-5.514zM70.017 20.509l-1.798 2.877c-0.479 0.959-1.319 2.038-3.356 2.038h-8.87l4.558-7.671h8.628c1.558 0 1.558 1.439 0.839 2.757zM77.569 7.804l-1.798 2.877c-0.48 0.959-1.318 2.038-3.356 2.038h-8.87l4.555-7.671h8.63c1.559 0 1.559 1.438 0.839 2.757z"></path>
<path fill="#e7e7e7" style="fill: var(--color7, #e7e7e7)" d="M254.576 7.82c0-0.24-0.11-0.495-0.328-0.619-0.226-0.124-0.472-0.138-0.72-0.138h-1.29v2.875h0.438v-1.325h0.518l0.844 1.325h0.502l-0.896-1.325c0.524-0.015 0.932-0.226 0.932-0.793zM253.156 8.256h-0.48v-0.866h0.764c0.372 0 0.698 0.051 0.698 0.422 0 0.517-0.566 0.444-0.982 0.444z"></path>
</symbol>
<symbol id="icon-icon" viewBox="0 0 32 32">
<path d="M14.694 24.144c-0.356 0-0.694-0.15-0.931-0.413l-6.506-7.25c-0.463-0.512-0.419-1.306 0.094-1.762 0.513-0.463 1.306-0.419 1.762 0.094l5.425 6.050 8.225-12.444c0.381-0.575 1.156-0.731 1.731-0.356 0.575 0.381 0.731 1.156 0.356 1.731l-9.113 13.794c-0.213 0.325-0.563 0.531-0.95 0.556-0.031 0-0.063 0-0.094 0z"></path>
</symbol>
</defs>
</svg>
